<?xml version="1.0" encoding="utf-8"?>
<!-- Generator: Adobe Illustrator 23.0.3, SVG Export Plug-In . SVG Version: 6.00 Build 0)  -->
<svg version="1.1" id="Layer_1" xmlns="http://www.w3.org/2000/svg" xmlns:xlink="http://www.w3.org/1999/xlink" x="0px" y="0px"
	 width="30px" height="30px" viewBox="0 0 30 30" style="enable-background:new 0 0 30 30;" xml:space="preserve">
<style type="text/css">
	.st0{fill:#FFFFFF;}
</style>
<g>
	<g>
		<path class="st0" d="M29.6,0.4c-0.5-0.5-1.2-0.5-1.7,0L0.4,27.9c-0.5,0.5-0.5,1.2,0,1.7C0.6,29.9,0.9,30,1.2,30s0.6-0.1,0.9-0.4
			L29.6,2.1C30.1,1.6,30.1,0.8,29.6,0.4z"/>
	</g>
</g>
<g>
	<g>
		<path class="st0" d="M29.6,27.9L2.1,0.4c-0.5-0.5-1.2-0.5-1.7,0c-0.5,0.5-0.5,1.2,0,1.7l27.6,27.6c0.2,0.2,0.5,0.4,0.9,0.4
			s0.6-0.1,0.9-0.4C30.1,29.2,30.1,28.4,29.6,27.9z"/>
	</g>
</g>
</svg>
