<?xml version="1.0" encoding="utf-8"?>
<!-- Generator: Adobe Illustrator 23.0.3, SVG Export Plug-In . SVG Version: 6.00 Build 0)  -->
<svg version="1.1" id="Capa_1" xmlns="http://www.w3.org/2000/svg" xmlns:xlink="http://www.w3.org/1999/xlink" x="0px" y="0px"
	 width="26px" height="26px" viewBox="0 0 26 26" style="enable-background:new 0 0 26 26;" xml:space="preserve">
<style type="text/css">
	.st0{fill:#FCFCFC;}
	.st1{fill:none;stroke:#FFFFFF;stroke-width:3;stroke-miterlimit:10;}
</style>
<g>
	<g>
		<g>
			<g>
				<path class="st0" d="M13,15.3c1.3,0,2.3-1,2.3-2.3c0-0.5-0.2-1-0.4-1.3c-0.4-0.6-1.1-1-1.9-1c-0.8,0-1.4,0.4-1.9,1
					c-0.3,0.4-0.4,0.8-0.4,1.3C10.7,14.3,11.7,15.3,13,15.3z"/>
				<polygon class="st0" points="18,10.2 18,8.3 18,8 17.7,8 15.8,8 15.8,10.2 				"/>
				<path class="st0" d="M13,1.5C6.7,1.5,1.5,6.7,1.5,13c0,6.3,5.2,11.5,11.5,11.5c6.3,0,11.5-5.2,11.5-11.5
					C24.5,6.7,19.3,1.5,13,1.5z M19.5,11.7V17c0,1.4-1.1,2.5-2.5,2.5H9c-1.4,0-2.5-1.1-2.5-2.5v-5.4V9c0-1.4,1.1-2.5,2.5-2.5h8
					c1.4,0,2.5,1.1,2.5,2.5V11.7z"/>
				<path class="st0" d="M16.6,13c0,2-1.6,3.6-3.6,3.6S9.4,15,9.4,13c0-0.5,0.1-0.9,0.3-1.3h-2V17c0,0.7,0.6,1.3,1.3,1.3h8
					c0.7,0,1.3-0.6,1.3-1.3v-5.4h-2C16.5,12.1,16.6,12.5,16.6,13z"/>
			</g>
		</g>
	</g>
	<circle class="st1" cx="13" cy="13" r="11.5"/>
</g>
</svg>
