<?xml version="1.0" standalone="no"?>
<!DOCTYPE svg PUBLIC "-//W3C//DTD SVG 20010904//EN"
 "http://www.w3.org/TR/2001/REC-SVG-20010904/DTD/svg10.dtd">
<svg version="1.0" xmlns="http://www.w3.org/2000/svg"
 width="512.000000pt" height="512.000000pt" viewBox="0 0 512.000000 512.000000"
 preserveAspectRatio="xMidYMid meet">

<g transform="translate(0.000000,512.000000) scale(0.100000,-0.100000)"
fill="#000000" stroke="none">
<path d="M1625 5003 c-409 -17 -681 -92 -921 -253 -99 -67 -265 -232 -326
-325 -131 -199 -205 -419 -238 -710 -7 -57 -14 -342 -17 -660 l-5 -560 138 -1
c77 0 174 -4 217 -8 l77 -7 0 333 c0 408 15 797 36 937 69 463 333 724 806
796 168 25 781 38 1463 31 661 -7 831 -15 987 -46 367 -75 607 -304 693 -661
43 -182 47 -269 52 -1142 6 -1116 -5 -1354 -78 -1572 -46 -138 -101 -227 -204
-330 -101 -101 -166 -143 -296 -192 -196 -74 -299 -83 -960 -90 l-556 -5 -7
-82 c-8 -94 -30 -227 -51 -305 l-14 -54 542 6 c560 7 744 16 907 43 345 58
613 204 818 445 191 223 290 495 323 884 16 193 23 1553 10 1900 -15 395 -35
539 -101 737 -132 394 -449 695 -858 814 -136 39 -290 62 -502 73 -170 10
-1735 13 -1935 4z"/>
<path d="M3783 4144 c-23 -9 -65 -35 -91 -59 -197 -178 -71 -505 194 -505 112
0 224 74 270 176 23 52 23 176 0 227 -23 51 -91 124 -141 149 -53 28 -173 34
-232 12z"/>
<path d="M2436 3810 c-303 -38 -541 -153 -752 -364 -228 -228 -346 -492 -369
-826 l-6 -95 108 -2 c101 -3 244 -22 304 -42 l27 -9 5 116 c5 133 22 205 73
311 89 189 248 342 432 417 116 47 180 58 317 58 139 0 205 -13 320 -61 246
-103 439 -346 485 -609 8 -43 11 -118 8 -190 -4 -100 -10 -134 -37 -214 -41
-121 -96 -213 -179 -302 -156 -165 -334 -248 -569 -264 -80 -6 -93 -9 -88 -23
4 -9 9 -63 12 -121 5 -94 -3 -182 -24 -269 l-6 -24 129 6 c201 9 348 47 525
138 598 307 845 1033 563 1648 -164 357 -517 632 -904 705 -99 19 -286 27
-374 16z"/>
</g>
</svg>
