<?xml version="1.0" encoding="utf-8"?>
<!-- Generator: Adobe Illustrator 23.0.3, SVG Export Plug-In . SVG Version: 6.00 Build 0)  -->
<svg version="1.1" id="Layer_1" xmlns="http://www.w3.org/2000/svg" xmlns:xlink="http://www.w3.org/1999/xlink" x="0px" y="0px"
	 width="121px" height="28px" viewBox="0 0 121 28" style="enable-background:new 0 0 121 28;" xml:space="preserve">
<style type="text/css">
	.st0{fill:#F7F3EB;}
</style>
<g>
	<defs>
		<rect id="SVGID_1_" x="-899.5" y="-526" width="1920" height="1080"/>
	</defs>
	<clipPath id="SVGID_2_">
		<use xlink:href="#SVGID_1_"  style="overflow:visible;"/>
	</clipPath>
</g>
<g>
	<path class="st0" d="M0.28,0.74h10.27c2.44,0,4.29,0.59,5.56,1.76c1.27,1.17,1.9,2.86,1.9,5.07c0,1.34-0.24,2.44-0.72,3.32
		c-0.48,0.88-1.21,1.62-2.2,2.23c0.98,0.19,1.82,0.47,2.52,0.86c0.69,0.39,1.25,0.86,1.69,1.42c0.43,0.56,0.74,1.2,0.93,1.9
		c0.19,0.7,0.28,1.45,0.28,2.25c0,1.24-0.22,2.35-0.65,3.31c-0.43,0.96-1.04,1.77-1.83,2.43c-0.79,0.66-1.74,1.15-2.87,1.48
		c-1.13,0.33-2.39,0.49-3.8,0.49H0.28V0.74z M7.17,11.15h1.27c2.16,0,3.24-0.86,3.24-2.57c0-1.71-1.08-2.57-3.24-2.57H7.17V11.15z
		 M7.17,21.91h1.51c1.74,0,2.98-0.22,3.73-0.67c0.75-0.45,1.13-1.16,1.13-2.15c0-0.98-0.38-1.7-1.13-2.15
		c-0.75-0.45-1.99-0.67-3.73-0.67H7.17V21.91z"/>
	<rect x="53.15" y="0.74" class="st0" width="6.89" height="26.52"/>
	<polygon class="st0" points="70.59,0.74 70.59,21.42 78.86,21.42 78.86,27.26 63.7,27.26 63.7,0.74 	"/>
	<polygon class="st0" points="95.61,6.58 87.41,6.58 87.41,11.01 95.15,11.01 95.15,16.85 87.41,16.85 87.41,21.42 95.61,21.42 
		95.61,27.26 80.51,27.26 80.51,0.74 95.61,0.74 	"/>
	<path class="st0" d="M120.72,27.26h-8.58l-6.58-10.2v10.2h-6.89V0.74h10.73c1.48,0,2.77,0.22,3.87,0.65
		c1.1,0.43,2.01,1.03,2.73,1.78c0.72,0.75,1.25,1.62,1.62,2.6c0.36,0.98,0.55,2.04,0.55,3.17c0,2.02-0.49,3.65-1.46,4.91
		c-0.97,1.25-2.41,2.1-4.31,2.55L120.72,27.26z M105.56,12.59h1.3c1.36,0,2.4-0.28,3.13-0.84c0.73-0.56,1.09-1.37,1.09-2.43
		c0-1.06-0.36-1.86-1.09-2.43c-0.73-0.56-1.77-0.84-3.13-0.84h-1.3V12.59z"/>
	<path class="st0" d="M49.6,8.49c-0.73-1.7-1.74-3.18-3.04-4.45c-1.3-1.27-2.86-2.26-4.66-2.97C40.09,0.36,38.12,0,35.98,0
		c-2.16,0-4.13,0.36-5.93,1.07c-1.79,0.72-3.34,1.71-4.63,2.97c-1.29,1.27-2.3,2.75-3.03,4.45c-0.73,1.7-1.09,3.54-1.09,5.5
		c0,1.97,0.36,3.81,1.09,5.51c0.73,1.7,1.74,3.18,3.03,4.45c1.29,1.27,2.83,2.26,4.63,2.97c1.79,0.72,3.77,1.07,5.93,1.07
		c2.13,0,4.1-0.36,5.91-1.07c1.81-0.71,3.36-1.71,4.66-2.97c1.3-1.27,2.32-2.75,3.04-4.45c0.73-1.7,1.09-3.53,1.09-5.51
		C50.69,12.03,50.32,10.2,49.6,8.49 M41.08,9.17c0.94,1.08,0.85,2.82-0.16,3.83l-0.61,0.61l-3.94-3.94l0.64-0.64
		c0.54-0.54,1.26-0.81,1.97-0.81C39.75,8.21,40.52,8.53,41.08,9.17 M39.9,14.01l-3.94,3.94l-3.94-3.94l3.94-3.94L39.9,14.01z
		 M32.14,7.7c0,0,0.01,0,0.01-0.01c0.31-0.18,0.63-0.33,0.97-0.47c0.9-0.36,1.86-0.55,2.87-0.55c1.01,0,1.96,0.18,2.87,0.55
		c0.09,0.04,0.18,0.08,0.27,0.11c0.27,0.13,0.54,0.27,0.8,0.44c-1.14-0.33-2.41-0.05-3.31,0.85l-0.64,0.64l-0.64-0.64
		c-0.89-0.89-2.16-1.17-3.3-0.85C32.06,7.75,32.1,7.73,32.14,7.7 M31.11,8.9c1.11-0.98,2.8-0.89,3.84,0.16l0.61,0.61l-3.94,3.94
		l-0.64-0.64C29.85,11.84,29.89,9.97,31.11,8.9 M27.69,22.63c-0.3,0-0.55-0.25-0.55-0.55c0-0.3,0.25-0.55,0.55-0.55
		c0.3,0,0.55,0.25,0.55,0.55C28.24,22.38,28,22.63,27.69,22.63 M27.69,6.75c-0.3,0-0.55-0.25-0.55-0.55c0-0.3,0.25-0.55,0.55-0.55
		c0.3,0,0.55,0.25,0.55,0.55C28.24,6.51,28,6.75,27.69,6.75 M29.73,17.96c-0.73-1.14-1.15-2.5-1.15-3.95c0-1.45,0.42-2.81,1.15-3.95
		c-0.33,1.14-0.05,2.41,0.85,3.31l0.64,0.64l-0.64,0.64C29.68,15.55,29.4,16.83,29.73,17.96 M30.85,18.86
		c-0.98-1.11-0.89-2.8,0.16-3.84l0.61-0.61l3.94,3.94l-0.64,0.64C33.79,20.12,31.92,20.08,30.85,18.86 M39.68,20.38
		c-0.27,0.15-0.54,0.28-0.83,0.4c-0.9,0.36-1.86,0.55-2.87,0.55c-1.01,0-1.96-0.18-2.87-0.55c-0.37-0.15-0.71-0.32-1.04-0.51
		c0.29,0.08,0.58,0.12,0.87,0.12c0.86,0,1.72-0.33,2.37-0.98l0.64-0.64l0.64,0.64c0.65,0.65,1.51,0.98,2.37,0.98
		c0.32,0,0.63-0.04,0.94-0.13C39.84,20.29,39.76,20.33,39.68,20.38 M40.95,18.99c-1.09,1.09-2.85,1.09-3.94,0l-0.64-0.64l3.94-3.94
		l0.64,0.64C42.03,16.14,42.03,17.91,40.95,18.99 M41.34,14.66l-0.64-0.64l0.64-0.64c0.89-0.89,1.18-2.17,0.85-3.31
		c0.73,1.14,1.15,2.5,1.15,3.95c0,1.45-0.42,2.81-1.15,3.95C42.52,16.83,42.24,15.55,41.34,14.66 M43.87,22.63
		c-0.3,0-0.55-0.25-0.55-0.55c0-0.3,0.25-0.55,0.55-0.55c0.3,0,0.55,0.25,0.55,0.55C44.42,22.38,44.17,22.63,43.87,22.63
		 M43.87,6.75c-0.3,0-0.55-0.25-0.55-0.55c0-0.3,0.25-0.55,0.55-0.55c0.3,0,0.55,0.25,0.55,0.55C44.42,6.51,44.17,6.75,43.87,6.75"
		/>
</g>
</svg>
