<?xml version="1.0" standalone="no"?>
<!DOCTYPE svg PUBLIC "-//W3C//DTD SVG 20010904//EN"
 "http://www.w3.org/TR/2001/REC-SVG-20010904/DTD/svg10.dtd">
<svg version="1.0" xmlns="http://www.w3.org/2000/svg"
 width="652.000000pt" height="134.000000pt" viewBox="0 0 652.000000 134.000000"
 preserveAspectRatio="xMidYMid meet">

<g transform="translate(0.000000,134.000000) scale(0.100000,-0.100000)"
fill="#000000" stroke="none">
<path d="M151 1198 c0 -7 80 -249 177 -538 l177 -525 60 0 60 0 177 525 c97
289 177 531 177 538 1 8 -19 12 -67 12 l-69 0 -133 -417 c-73 -230 -136 -421
-139 -425 -3 -3 -69 185 -146 418 l-139 424 -68 0 c-48 0 -68 -4 -67 -12z"/>
<path d="M1030 670 l0 -540 135 0 135 0 0 540 0 540 -135 0 -135 0 0 -540z"/>
<path d="M1370 669 l0 -540 273 3 c223 4 281 7 324 21 104 35 187 121 219 228
l19 63 5 -154 5 -155 466 -3 465 -2 27 90 27 90 179 0 178 0 27 -90 27 -90
495 0 495 0 -3 103 -3 102 -247 3 -248 2 0 435 0 435 -115 0 -115 0 -2 -482
-3 -482 -139 400 c-76 219 -152 436 -168 482 l-30 83 -146 -3 -146 -3 -142
-399 c-78 -219 -147 -409 -153 -422 l-11 -24 -214 0 c-171 0 -216 3 -225 14
-8 9 -11 45 -9 98 l3 83 190 5 190 5 0 110 0 110 -185 3 c-132 2 -186 6 -192
15 -13 21 -9 153 5 166 9 7 92 12 233 13 l219 3 0 110 0 110 -367 3 -368 2 -1
-157 0 -158 -19 58 c-31 99 -87 170 -165 210 -81 41 -128 47 -397 47 l-258 0
0 -541z m481 274 c18 -10 40 -29 50 -43 47 -64 51 -349 7 -438 -33 -67 -70
-83 -178 -80 l-85 3 -3 279 c-2 211 1 282 10 294 18 21 156 11 199 -15z m1583
-222 c25 -85 46 -160 46 -168 0 -10 -24 -13 -100 -13 -79 0 -100 3 -100 14 0
14 88 304 97 319 3 5 6 7 8 5 2 -2 24 -72 49 -157z"/>
<path d="M4652 673 l3 -538 88 -3 87 -3 0 541 0 540 -90 0 -90 0 2 -537z"/>
<path d="M4932 1148 l3 -63 252 -5 252 -5 -264 -408 -265 -408 0 -65 0 -64
343 2 342 3 0 60 0 60 -262 3 c-145 1 -263 4 -263 7 0 2 119 188 265 412 l265
408 0 62 0 63 -335 0 -336 0 3 -62z"/>
<path d="M5672 673 l3 -538 320 0 320 0 0 35 0 35 -275 5 -275 5 0 210 0 210
238 3 237 2 0 40 0 40 -240 0 -240 0 0 205 0 205 278 2 277 3 0 35 0 35 -323
3 -322 2 2 -537z"/>
</g>
</svg>
