<?xml version="1.0" encoding="utf-8"?>
<!-- Generator: Adobe Illustrator 27.4.1, SVG Export Plug-In . SVG Version: 6.00 Build 0)  -->
<svg version="1.1" id="Layer_1" xmlns="http://www.w3.org/2000/svg" xmlns:xlink="http://www.w3.org/1999/xlink" x="0px" y="0px"
	 viewBox="0 0 828 276" style="enable-background:new 0 0 828 276;" xml:space="preserve">
<style type="text/css">
	.st0{clip-path:url(#SVGID_00000156548732176719440740000004133149093177985432_);}
	.st1{fill:#D9291C;}
	.st2{fill:#FFFFFF;}
	.st3{font-family:'DINNextLTPro-Medium';}
	.st4{font-size:50.9946px;}
	.st5{letter-spacing:6;}
	.st6{letter-spacing:3;}
	.st7{enable-background:new    ;}
</style>
<g>
	<defs>
		<rect id="SVGID_1_" x="25.3" y="27.7" width="773.7" height="234.8"/>
	</defs>
	<clipPath id="SVGID_00000113340315634696058280000017001316614531873722_">
		<use xlink:href="#SVGID_1_"  style="overflow:visible;"/>
	</clipPath>
	<g id="Group_162502" style="clip-path:url(#SVGID_00000113340315634696058280000017001316614531873722_);">
		<path id="Path_1117" class="st1" d="M71.9,163.8c-1.2,0-2.1-0.9-2.5-1.9l-44-131.5c-0.5-1.6,0.2-2.5,1.4-2.5h13.5
			c1.2-0.2,2.6,0.7,2.8,1.9l34.8,105h0.4l33.6-105c0.2-1.2,1.4-2.1,2.6-1.9h13.9c1.2,0,1.9,0.9,1.4,2.5L86.1,161.9
			c-0.2,1.1-1.2,1.9-2.5,1.9H71.9z"/>
		<path id="Rectangle_731" class="st1" d="M138.2,27.7h29.5c1.6,0,2.8,1.2,2.8,2.8l0,0V161c0,1.6-1.2,2.8-2.8,2.8h-29.5
			c-1.6,0-2.8-1.2-2.8-2.8V30.7C135.4,28.9,136.6,27.7,138.2,27.7z"/>
		<path id="Path_1118" class="st1" d="M178.1,29.8c0-1.1,0.7-1.9,1.8-1.9h0.2h52.6c23.9,0,41.7,10,48.4,30.9c2.8,8.8,4,16.4,4,36.9
			c0,20.4-1.2,28.1-4,36.9c-6.9,20.9-24.4,30.9-48.4,30.9H180c-1.1,0-1.9-0.7-1.9-1.8v-0.2V29.8z M214.5,132.5H225
			c12.5,0,19.2-3.3,22.3-13c1.2-4,1.9-8.6,1.9-23.7c0-15.1-0.9-19.9-1.9-23.7c-3.2-9.7-10-13-22.3-13h-10.6c-0.5,0-1.1,0.4-1.2,0.9
			c0,0.2,0,0.2,0,0.4v71.2c0,0.5,0.4,1.1,0.9,1.2C214.3,132.5,214.3,132.5,214.5,132.5"/>
		<path id="Path_1119" class="st1" d="M283.6,29.8c0-1.1,0.7-1.9,1.8-1.9h0.2h89c1.1,0,1.9,0.7,1.9,1.8v0.2v25.7
			c0,1.1-0.7,1.9-1.8,1.9h-0.2h-54.7c-0.5,0-1.1,0.4-1.2,0.9c0,0.2,0,0.2,0,0.4v20.6c0,0.5,0.4,1.1,0.9,1.2c0.2,0,0.2,0,0.4,0h44.8
			c1.1,0,1.9,0.7,1.9,1.8v0.2v25.1c0,1.1-0.7,1.9-1.8,1.9h-0.2h-44.8c-0.5,0-1.1,0.4-1.2,0.9c0,0.2,0,0.2,0,0.4v21.8
			c0,0.5,0.4,1.1,0.9,1.2c0.2,0,0.2,0,0.4,0h54.7c1.1,0,1.9,0.7,1.9,1.8v0.2v25.8c0,1.1-0.7,1.9-1.8,1.9h-0.2h-89
			c-1.1,0-1.9-0.7-1.9-1.8v-0.2V29.8z"/>
		<path id="Path_1120" class="st1" d="M412.1,29.8c0.4-1.2,1.4-2.1,2.6-1.9h32.5c1.2,0,2.3,0.9,2.6,1.9L496,161.9
			c0.4,0.7,0.2,1.6-0.5,1.9c-0.2,0.2-0.5,0.2-0.9,0.2h-33.1c-1.2,0-2.3-0.9-2.6-1.9l-6.3-20.9h-44.1l-6.3,20.9
			c-0.4,1.2-1.4,2.1-2.6,1.9h-32.9c-0.7,0.2-1.4-0.4-1.6-1.2c0-0.4,0-0.5,0.2-0.9L412.1,29.8z M443.8,111.6l-12.7-42.4h-0.5
			l-13.2,42.4H443.8z"/>
		<path id="Path_1121" class="st1" d="M491.8,29.8c0-1.1,0.7-1.9,1.8-1.9h0.2h25.3c1.1,0,1.9,0.7,1.9,1.8v0.2v106.6
			c0,0.5,0.4,1.1,0.9,1.2c0.2,0,0.2,0,0.4,0h60c1.1,0,1.9,0.7,1.9,1.8v0.2v22.2c0,1.1-0.7,1.9-1.8,1.9h-0.2h-88.6
			c-1.1,0-1.9-0.7-1.9-1.8v-0.2L491.8,29.8z"/>
		<path id="Rectangle_732" class="st1" d="M592.2,27.7h17.9c1.6,0,2.8,1.2,2.8,2.8l0,0V161c0,1.6-1.2,2.8-2.8,2.8h-17.9
			c-1.6,0-2.8-1.2-2.8-2.8V30.7C589.4,28.9,590.6,27.7,592.2,27.7z"/>
		<path id="Path_1122" class="st1" d="M623.7,163.8c-1.1,0-1.9-0.7-1.9-1.8v-0.2v-12.7c0-0.9,0.4-1.6,0.9-2.3l66.5-102.3v-0.2h-62.8
			c-1.1,0-1.9-0.7-1.9-1.8v-0.2V29.8c0-1.1,0.7-1.9,1.8-1.9h0.2h81.2c1.1,0,1.9,0.7,1.9,1.8v0.2v12.7c0,0.9-0.4,1.6-0.9,2.3
			L642,147.1v0.2h65.4c1.1,0,1.9,0.7,1.9,1.8v0.2v12.7c0,1.1-0.7,1.9-1.8,1.9h-0.2L623.7,163.8z"/>
		<path id="Path_1123" class="st1" d="M717.2,29.8c0-1.1,0.7-1.9,1.8-1.9h0.2h77.7c1.1,0,1.9,0.7,1.9,1.8v0.2v6.9
			c0,1.1-0.7,1.9-1.8,1.9h-0.2h-67.2c-0.5-0.2-1.1,0.4-1.2,0.9c0,0.2,0,0.2,0,0.4v48.4c0,0.5,0.4,1.1,0.9,1.2c0.2,0,0.2,0,0.4,0
			h57.9c1.1,0,1.9,0.7,1.9,1.8v0.2v6.9c0,1.1-0.7,1.9-1.8,1.9h-0.2h-57.9c-0.5-0.2-1.1,0.4-1.2,0.9c0,0.2,0,0.2,0,0.4v50.5
			c0,0.5,0.4,1.1,0.9,1.2c0.2,0,0.2,0,0.4,0h67.2c1.1,0,1.9,0.7,1.9,1.8v0.2v6.9c0,1.1-0.7,1.9-1.8,1.9h-0.2h-77.7
			c-1.1,0-1.9-0.7-1.9-1.8v-0.2V29.8z"/>
		<text transform="matrix(1 0 0 1 111.6719 249.3828)" class="st2 st3 st4 st5">PR</text>
		<text transform="matrix(1 0 0 1 189.2422 249.3828)" class="st2 st3 st4 st5">O</text>
		<text transform="matrix(1 0 0 1 228.9141 249.3828)" class="st2 st3 st4 st5">DUT</text>
		<text transform="matrix(1 0 0 1 344.875 249.3828)" class="st2 st3 st4 st5">O</text>
		<text transform="matrix(1 0 0 1 384.5469 249.3828)" class="st2 st3 st4 st5">RA </text>
		<text transform="matrix(1 0 0 1 482.8672 249.3828)" class="st2 st3 st4 st5">D</text>
		<text transform="matrix(1 0 0 1 522.4375 249.3828)" class="st2 st3 st4 st5">IGI</text>
		<text transform="matrix(1 0 0 1 604.9922 249.3828)" class="st2 st3 st4 st6">T</text>
		<text transform="matrix(1 0 0 1 637.7344 249.3828)" class="st2 st3 st4 st5">A</text>
		<text transform="matrix(1 0 0 1 676.9531 249.3828)" class="st2 st3 st4">L</text>
		<g class="st7">
			<path class="st1" d="M116,249.4c-0.3,0-0.5-0.2-0.5-0.5v-33.7c0-0.3,0.2-0.5,0.5-0.5h13c1.7,0,3.2,0.3,4.6,0.8
				c1.4,0.5,2.6,1.3,3.6,2.2c1,0.9,1.8,2.1,2.3,3.4c0.6,1.3,0.8,2.8,0.8,4.4c0,1.6-0.3,3.1-0.8,4.4c-0.6,1.3-1.3,2.5-2.3,3.4
				c-1,0.9-2.2,1.7-3.6,2.2c-1.4,0.5-3,0.8-4.6,0.8h-7.2c-0.2,0-0.3,0.1-0.3,0.3v12.3c0,0.3-0.2,0.5-0.5,0.5H116z M128.7,230.8
				c1.8,0,3.2-0.5,4.2-1.4c1-1,1.5-2.3,1.5-3.9c0-1.6-0.5-2.9-1.5-3.9c-1-1-2.4-1.5-4.2-1.5h-6.8c-0.2,0-0.3,0.1-0.3,0.3v10.1
				c0,0.2,0.1,0.3,0.3,0.3H128.7z"/>
			<path class="st1" d="M172.7,249.4c-0.4,0-0.6-0.2-0.8-0.5l-6.6-13.5h-6c-0.2,0-0.3,0.1-0.3,0.3v13.2c0,0.3-0.2,0.5-0.5,0.5h-5
				c-0.3,0-0.5-0.2-0.5-0.5v-33.7c0-0.3,0.2-0.5,0.5-0.5h13.4c1.6,0,3.1,0.3,4.4,0.8c1.3,0.5,2.5,1.2,3.5,2.1c1,0.9,1.8,2,2.3,3.3
				c0.6,1.3,0.8,2.7,0.8,4.2c0,2.3-0.6,4.2-1.8,5.9c-1.2,1.7-2.8,2.9-4.8,3.6l7.3,14.1c0.1,0.2,0.1,0.3,0,0.5
				c-0.1,0.1-0.2,0.2-0.4,0.2H172.7z M166.7,230c1.6,0,2.9-0.4,3.8-1.3c1-0.9,1.5-2.1,1.5-3.6c0-1.5-0.5-2.7-1.5-3.6
				c-1-0.9-2.2-1.3-3.8-1.3h-7.4c-0.2,0-0.3,0.1-0.3,0.3v9.2c0,0.2,0.1,0.3,0.3,0.3H166.7z"/>
		</g>
		<g class="st7">
			<path class="st1" d="M205.2,249.9c-3,0-5.6-0.7-7.7-2.1c-2.1-1.4-3.7-3.5-4.5-6.2c-0.2-0.5-0.3-1.1-0.4-1.6
				c-0.1-0.5-0.2-1.2-0.3-1.9c-0.1-0.7-0.1-1.5-0.2-2.5c0-1,0-2.1,0-3.5c0-1.4,0-2.5,0-3.5c0-1,0.1-1.8,0.2-2.5
				c0.1-0.7,0.2-1.3,0.3-1.9c0.1-0.5,0.3-1.1,0.4-1.6c0.9-2.8,2.4-4.8,4.5-6.2c2.1-1.4,4.7-2.1,7.7-2.1c3,0,5.6,0.7,7.7,2.1
				c2.1,1.4,3.7,3.5,4.5,6.2c0.2,0.5,0.3,1.1,0.4,1.6c0.1,0.5,0.2,1.2,0.3,1.9c0.1,0.7,0.1,1.6,0.2,2.5c0,1,0.1,2.1,0.1,3.5
				c0,1.4,0,2.5-0.1,3.5c0,1-0.1,1.8-0.2,2.5c-0.1,0.7-0.2,1.3-0.3,1.9c-0.1,0.5-0.3,1.1-0.4,1.6c-0.9,2.8-2.4,4.8-4.5,6.2
				C210.8,249.2,208.2,249.9,205.2,249.9z M205.2,244.5c1.7,0,3.1-0.4,4.2-1.2c1.1-0.8,1.8-1.9,2.3-3.3c0.1-0.3,0.2-0.7,0.3-1.1
				c0.1-0.4,0.1-0.9,0.2-1.5c0.1-0.6,0.1-1.4,0.1-2.2c0-0.9,0-1.9,0-3.1c0-1.2,0-2.3,0-3.1c0-0.9-0.1-1.6-0.1-2.2
				c0-0.6-0.1-1.1-0.2-1.5c-0.1-0.4-0.2-0.8-0.3-1.1c-0.5-1.4-1.2-2.5-2.3-3.3c-1.1-0.8-2.5-1.2-4.2-1.2c-1.7,0-3.1,0.4-4.2,1.2
				c-1,0.8-1.8,1.9-2.3,3.3c-0.1,0.3-0.2,0.7-0.3,1.1c-0.1,0.4-0.2,0.9-0.2,1.5c-0.1,0.6-0.1,1.3-0.1,2.2c0,0.9,0,1.9,0,3.1
				c0,1.2,0,2.3,0,3.1c0,0.9,0,1.6,0.1,2.2c0,0.6,0.1,1.1,0.2,1.5c0.1,0.4,0.2,0.8,0.3,1.1c0.5,1.4,1.2,2.5,2.3,3.3
				C202.1,244.1,203.5,244.5,205.2,244.5z"/>
		</g>
		<g class="st7">
			<path class="st1" d="M232.7,215.2c0-0.3,0.2-0.5,0.5-0.5h12.4c6.1,0,9.9,2.6,11.6,7.7c0.1,0.4,0.3,0.9,0.4,1.4
				c0.1,0.5,0.2,1.1,0.3,1.8c0.1,0.7,0.1,1.6,0.2,2.6c0,1,0,2.3,0,3.8c0,1.5,0,2.8,0,3.8c0,1-0.1,1.9-0.2,2.6
				c-0.1,0.7-0.2,1.3-0.3,1.8c-0.1,0.5-0.2,1-0.4,1.4c-1.7,5.1-5.5,7.7-11.6,7.7h-12.4c-0.3,0-0.5-0.2-0.5-0.5V215.2z M238.8,243.7
				c0,0.2,0.1,0.3,0.3,0.3h5.2c1.9,0,3.5-0.3,4.7-1c1.2-0.7,2-1.8,2.5-3.4c0.1-0.2,0.2-0.5,0.3-0.9c0.1-0.4,0.1-0.8,0.2-1.4
				c0-0.6,0.1-1.3,0.1-2.1c0-0.8,0-1.9,0-3.2c0-1.3,0-2.3,0-3.2c0-0.8-0.1-1.6-0.1-2.1c-0.1-0.6-0.1-1-0.2-1.4s-0.2-0.6-0.3-0.9
				c-0.5-1.6-1.3-2.7-2.5-3.4c-1.2-0.7-2.7-1-4.7-1h-5.2c-0.2,0-0.3,0.1-0.3,0.3V243.7z"/>
			<path class="st1" d="M284.1,244.5c2,0,3.6-0.6,4.9-1.9c1.3-1.3,1.9-3.1,1.9-5.5v-21.9c0-0.3,0.2-0.5,0.5-0.5h5
				c0.3,0,0.5,0.2,0.5,0.5v22c0,2-0.3,3.8-1,5.4c-0.6,1.6-1.5,2.9-2.7,4c-1.1,1.1-2.5,1.9-4.1,2.5c-1.6,0.6-3.3,0.9-5.1,0.9
				c-1.8,0-3.5-0.3-5.1-0.9c-1.5-0.6-2.9-1.4-4-2.5c-1.1-1.1-2-2.4-2.7-4c-0.6-1.6-1-3.4-1-5.4v-22c0-0.3,0.2-0.5,0.5-0.5h5
				c0.3,0,0.5,0.2,0.5,0.5v21.9c0,2.4,0.6,4.3,1.9,5.5C280.6,243.9,282.2,244.5,284.1,244.5z"/>
			<path class="st1" d="M319.1,249.4c-0.3,0-0.5-0.2-0.5-0.5v-28.5c0-0.2-0.1-0.3-0.3-0.3h-9.1c-0.3,0-0.5-0.2-0.5-0.5v-4.4
				c0-0.3,0.2-0.5,0.5-0.5H334c0.3,0,0.5,0.2,0.5,0.5v4.4c0,0.3-0.2,0.5-0.5,0.5h-9.1c-0.2,0-0.3,0.1-0.3,0.3v28.5
				c0,0.3-0.2,0.5-0.5,0.5H319.1z"/>
		</g>
		<g class="st7">
			<path class="st1" d="M360.8,249.9c-3,0-5.6-0.7-7.7-2.1c-2.1-1.4-3.7-3.5-4.5-6.2c-0.2-0.5-0.3-1.1-0.4-1.6
				c-0.1-0.5-0.2-1.2-0.3-1.9c-0.1-0.7-0.1-1.5-0.2-2.5c0-1,0-2.1,0-3.5c0-1.4,0-2.5,0-3.5c0-1,0.1-1.8,0.2-2.5
				c0.1-0.7,0.2-1.3,0.3-1.9c0.1-0.5,0.3-1.1,0.4-1.6c0.9-2.8,2.4-4.8,4.5-6.2c2.1-1.4,4.7-2.1,7.7-2.1c3,0,5.6,0.7,7.7,2.1
				c2.1,1.4,3.7,3.5,4.5,6.2c0.2,0.5,0.3,1.1,0.4,1.6c0.1,0.5,0.2,1.2,0.3,1.9c0.1,0.7,0.1,1.6,0.2,2.5c0,1,0.1,2.1,0.1,3.5
				c0,1.4,0,2.5-0.1,3.5c0,1-0.1,1.8-0.2,2.5c-0.1,0.7-0.2,1.3-0.3,1.9c-0.1,0.5-0.3,1.1-0.4,1.6c-0.9,2.8-2.4,4.8-4.5,6.2
				C366.4,249.2,363.9,249.9,360.8,249.9z M360.8,244.5c1.7,0,3.1-0.4,4.2-1.2c1.1-0.8,1.8-1.9,2.3-3.3c0.1-0.3,0.2-0.7,0.3-1.1
				c0.1-0.4,0.1-0.9,0.2-1.5c0.1-0.6,0.1-1.4,0.1-2.2c0-0.9,0-1.9,0-3.1c0-1.2,0-2.3,0-3.1c0-0.9-0.1-1.6-0.1-2.2
				c0-0.6-0.1-1.1-0.2-1.5c-0.1-0.4-0.2-0.8-0.3-1.1c-0.5-1.4-1.2-2.5-2.3-3.3c-1.1-0.8-2.5-1.2-4.2-1.2c-1.7,0-3.1,0.4-4.2,1.2
				c-1,0.8-1.8,1.9-2.3,3.3c-0.1,0.3-0.2,0.7-0.3,1.1c-0.1,0.4-0.2,0.9-0.2,1.5c-0.1,0.6-0.1,1.3-0.1,2.2c0,0.9,0,1.9,0,3.1
				c0,1.2,0,2.3,0,3.1c0,0.9,0,1.6,0.1,2.2c0,0.6,0.1,1.1,0.2,1.5c0.1,0.4,0.2,0.8,0.3,1.1c0.5,1.4,1.2,2.5,2.3,3.3
				C357.7,244.1,359.1,244.5,360.8,244.5z"/>
		</g>
		<g class="st7">
			<path class="st1" d="M408.1,249.4c-0.4,0-0.6-0.2-0.8-0.5l-6.6-13.5h-6c-0.2,0-0.3,0.1-0.3,0.3v13.2c0,0.3-0.2,0.5-0.5,0.5h-5
				c-0.3,0-0.5-0.2-0.5-0.5v-33.7c0-0.3,0.2-0.5,0.5-0.5h13.4c1.6,0,3.1,0.3,4.4,0.8c1.3,0.5,2.5,1.2,3.5,2.1c1,0.9,1.8,2,2.3,3.3
				s0.8,2.7,0.8,4.2c0,2.3-0.6,4.2-1.8,5.9c-1.2,1.7-2.8,2.9-4.8,3.6l7.3,14.1c0.1,0.2,0.1,0.3,0,0.5c-0.1,0.1-0.2,0.2-0.4,0.2
				H408.1z M402.1,230c1.6,0,2.9-0.4,3.8-1.3c1-0.9,1.5-2.1,1.5-3.6c0-1.5-0.5-2.7-1.5-3.6c-1-0.9-2.2-1.3-3.8-1.3h-7.4
				c-0.2,0-0.3,0.1-0.3,0.3v9.2c0,0.2,0.1,0.3,0.3,0.3H402.1z"/>
			<path class="st1" d="M435.9,215.2c0.1-0.3,0.3-0.5,0.7-0.5h4.7c0.3,0,0.6,0.2,0.7,0.5l11.7,33.7c0.1,0.3,0,0.5-0.4,0.5h-5
				c-0.3,0-0.6-0.2-0.7-0.5l-2.3-6.7h-13.1l-2.3,6.7c-0.1,0.3-0.3,0.5-0.7,0.5h-4.9c-0.3,0-0.5-0.2-0.4-0.5L435.9,215.2z
				 M443.5,236.8l-4.6-13.5h-0.2l-4.6,13.5H443.5z"/>
		</g>
		<g class="st7">
			<path class="st1" d="M486.7,215.2c0-0.3,0.2-0.5,0.5-0.5h12.4c6.1,0,9.9,2.6,11.6,7.7c0.1,0.4,0.3,0.9,0.4,1.4
				c0.1,0.5,0.2,1.1,0.3,1.8c0.1,0.7,0.1,1.6,0.2,2.6c0,1,0,2.3,0,3.8c0,1.5,0,2.8,0,3.8c0,1-0.1,1.9-0.2,2.6
				c-0.1,0.7-0.2,1.3-0.3,1.8c-0.1,0.5-0.2,1-0.4,1.4c-1.7,5.1-5.5,7.7-11.6,7.7h-12.4c-0.3,0-0.5-0.2-0.5-0.5V215.2z M492.7,243.7
				c0,0.2,0.1,0.3,0.3,0.3h5.2c1.9,0,3.5-0.3,4.7-1c1.2-0.7,2-1.8,2.5-3.4c0.1-0.2,0.2-0.5,0.3-0.9c0.1-0.4,0.1-0.8,0.2-1.4
				c0.1-0.6,0.1-1.3,0.1-2.1c0-0.8,0.1-1.9,0.1-3.2c0-1.3,0-2.3-0.1-3.2c0-0.8-0.1-1.6-0.1-2.1c0-0.6-0.1-1-0.2-1.4
				c-0.1-0.3-0.2-0.6-0.3-0.9c-0.5-1.6-1.3-2.7-2.5-3.4c-1.2-0.7-2.7-1-4.7-1H493c-0.2,0-0.3,0.1-0.3,0.3V243.7z"/>
		</g>
		<g class="st7">
			<path class="st1" d="M526.3,215.2c0-0.3,0.2-0.5,0.5-0.5h5c0.3,0,0.5,0.2,0.5,0.5v33.7c0,0.3-0.2,0.5-0.5,0.5h-5
				c-0.3,0-0.5-0.2-0.5-0.5V215.2z"/>
			<path class="st1" d="M546.8,241.6c-0.2-0.5-0.3-1.1-0.4-1.6c-0.1-0.5-0.2-1.2-0.3-1.9c-0.1-0.7-0.1-1.5-0.2-2.5c0-1,0-2.1,0-3.5
				c0-1.4,0-2.5,0-3.5c0-1,0.1-1.8,0.2-2.5c0.1-0.7,0.2-1.3,0.3-1.9c0.1-0.5,0.3-1.1,0.4-1.6c0.9-2.8,2.4-4.8,4.5-6.2
				c2.1-1.4,4.8-2.1,7.9-2.1c1.6,0,3.1,0.2,4.4,0.6c1.3,0.4,2.5,0.9,3.5,1.6c1,0.7,1.9,1.4,2.5,2.3c0.7,0.9,1.2,1.8,1.6,2.8
				c0.1,0.3,0.1,0.5-0.2,0.7l-4.3,1.9c-0.3,0.1-0.5,0-0.7-0.3c-0.8-1.4-1.7-2.5-2.8-3.2c-1.1-0.7-2.5-1.1-4.2-1.1
				c-1.8,0-3.2,0.4-4.2,1.2s-1.8,1.9-2.3,3.3c-0.1,0.3-0.2,0.7-0.3,1.1c-0.1,0.4-0.2,0.9-0.2,1.5c0,0.6-0.1,1.3-0.1,2.2
				c0,0.9,0,1.9,0,3.1c0,1.2,0,2.3,0,3.1c0,0.9,0.1,1.6,0.1,2.2c0.1,0.6,0.1,1.1,0.2,1.5c0.1,0.4,0.2,0.8,0.3,1.1
				c0.5,1.4,1.2,2.5,2.3,3.3s2.5,1.2,4.2,1.2c1.5,0,2.9-0.4,4.1-1.1c1.2-0.7,2-1.8,2.5-3.2c0.2-0.5,0.3-1.2,0.4-1.9
				c0.1-0.7,0.2-1.6,0.2-2.6c0-0.2-0.1-0.3-0.3-0.3h-5.7c-0.3,0-0.5-0.2-0.5-0.5v-4.1c0-0.3,0.2-0.5,0.5-0.5h11.5
				c0.3,0,0.5,0.2,0.5,0.5v3c0,1.4-0.1,2.8-0.2,4.2c-0.1,1.4-0.3,2.5-0.6,3.4c-0.8,2.7-2.4,4.8-4.5,6.3c-2.2,1.5-4.7,2.2-7.7,2.2
				c-3.1,0-5.7-0.7-7.9-2.1C549.2,246.4,547.7,244.3,546.8,241.6z"/>
			<path class="st1" d="M585.9,215.2c0-0.3,0.2-0.5,0.5-0.5h5c0.3,0,0.5,0.2,0.5,0.5v33.7c0,0.3-0.2,0.5-0.5,0.5h-5
				c-0.3,0-0.5-0.2-0.5-0.5V215.2z"/>
		</g>
		<g class="st7">
			<path class="st1" d="M616.5,249.4c-0.3,0-0.5-0.2-0.5-0.5v-28.5c0-0.2-0.1-0.3-0.3-0.3h-9.1c-0.3,0-0.5-0.2-0.5-0.5v-4.4
				c0-0.3,0.2-0.5,0.5-0.5h24.8c0.3,0,0.5,0.2,0.5,0.5v4.4c0,0.3-0.2,0.5-0.5,0.5h-9.1c-0.2,0-0.3,0.1-0.3,0.3v28.5
				c0,0.3-0.2,0.5-0.5,0.5H616.5z"/>
		</g>
		<g class="st7">
			<path class="st1" d="M650.5,215.2c0.1-0.3,0.3-0.5,0.7-0.5h4.7c0.3,0,0.6,0.2,0.7,0.5l11.7,33.7c0.1,0.3,0,0.5-0.4,0.5h-5
				c-0.3,0-0.6-0.2-0.7-0.5l-2.3-6.7h-13.1l-2.3,6.7c-0.1,0.3-0.3,0.5-0.7,0.5H639c-0.3,0-0.5-0.2-0.4-0.5L650.5,215.2z
				 M658.1,236.8l-4.6-13.5h-0.2l-4.6,13.5H658.1z"/>
		</g>
		<g class="st7">
			<path class="st1" d="M680.8,215.2c0-0.3,0.2-0.5,0.5-0.5h5c0.3,0,0.5,0.2,0.5,0.5v28.5c0,0.2,0.1,0.3,0.3,0.3H703
				c0.3,0,0.5,0.2,0.5,0.5v4.4c0,0.3-0.2,0.5-0.5,0.5h-21.7c-0.3,0-0.5-0.2-0.5-0.5V215.2z"/>
		</g>
	</g>
</g>
</svg>
