<?xml version="1.0" encoding="UTF-8"?>
<svg id="Layer_1" data-name="Layer 1" xmlns="http://www.w3.org/2000/svg" viewBox="0 0 618.99 188.68">
  <defs>
    <style>
      .cls-1 {
        letter-spacing: .15em;
      }

      .cls-2 {
        letter-spacing: .08em;
      }

      .cls-3, .cls-4 {
        font-family: DINNextLTPro-Medium, 'DINNextLTPro Medium';
        font-size: 42.08px;
        font-weight: 500;
      }

      .cls-3, .cls-5 {
        fill: #d9291c;
      }

      .cls-4 {
        fill: #fff;
      }

      .cls-6 {
        letter-spacing: .15em;
      }

      .cls-7 {
        letter-spacing: .13em;
      }

      .cls-8 {
        letter-spacing: .15em;
      }

      .cls-9 {
        letter-spacing: .16em;
      }

      .cls-10 {
        letter-spacing: .15em;
      }
    </style>
  </defs>
  <path class="cls-5" d="m37.29,108.81c-.96,0-1.6-.64-1.92-1.6L.16,1.92C-.32.64.32,0,1.29,0h10.88C13.45,0,14.09.48,14.41,1.6l27.84,84.01h.32L69.45,1.6C69.77.48,70.41,0,71.53,0h11.04c.96,0,1.6.64,1.12,1.92l-35.04,105.29c-.32.96-.96,1.6-1.92,1.6h-9.44Z"/>
  <path class="cls-5" d="m89.62,0h24.96c.88,0,1.6.72,1.6,1.6v105.61c0,.88-.72,1.6-1.6,1.6h-24.96c-.88,0-1.6-.72-1.6-1.6V1.6C88.02.72,88.74,0,89.62,0Z"/>
  <path class="cls-5" d="m122.27,1.6C122.27.64,122.91,0,123.87,0h42.09C185.15,0,199.23,8,204.68,24.8c2.24,7.04,3.2,13.12,3.2,29.6s-.96,22.56-3.2,29.6c-5.44,16.8-19.52,24.8-38.72,24.8h-42.09c-.96,0-1.6-.64-1.6-1.6V1.6Zm29.12,82.25h8.48c9.92,0,15.36-2.72,17.92-10.4.96-3.2,1.6-6.88,1.6-19.04s-.64-15.84-1.6-19.04c-2.56-7.68-8-10.4-17.92-10.4h-8.48c-.64,0-.96.32-.96.96v56.97c0,.64.32.96.96.96"/>
  <path class="cls-5" d="m206.6,1.6C206.6.64,207.24,0,208.2,0h71.21c.96,0,1.6.64,1.6,1.6v20.64c0,.96-.64,1.6-1.6,1.6h-43.69c-.64,0-.96.32-.96.96v16.48c0,.64.32.96.96.96h35.84c.96,0,1.6.64,1.6,1.6v20.16c0,.96-.64,1.6-1.6,1.6h-35.84c-.64,0-.96.32-.96.96v17.44c0,.64.32.96.96.96h43.69c.96,0,1.6.64,1.6,1.6v20.64c0,.96-.64,1.6-1.6,1.6h-71.21c-.96,0-1.6-.64-1.6-1.6V1.6Z"/>
  <path class="cls-5" d="m309.5,1.6c.32-.96.96-1.6,2.08-1.6h26.08c1.12,0,1.76.64,2.08,1.6l36.81,105.61c.32.96-.16,1.6-1.12,1.6h-26.4c-1.12,0-1.76-.64-2.08-1.6l-5.12-16.8h-35.37l-5.12,16.8c-.32.96-.96,1.6-2.08,1.6h-26.24c-.96,0-1.44-.64-1.12-1.6L309.5,1.6Zm25.28,65.45l-10.08-33.92h-.48l-10.56,33.92h21.12Z"/>
  <path class="cls-5" d="m373.19,1.6c0-.96.64-1.6,1.6-1.6h20.32c.96,0,1.6.64,1.6,1.6v85.29c0,.64.32.96.96.96h48.01c.96,0,1.6.64,1.6,1.6v17.76c0,.96-.64,1.6-1.6,1.6h-70.89c-.96,0-1.6-.64-1.6-1.6V1.6Z"/>
  <path class="cls-5" d="m452.88,0h15.68c.88,0,1.6.72,1.6,1.6v105.61c0,.88-.72,1.6-1.6,1.6h-15.68c-.88,0-1.6-.72-1.6-1.6V1.6c0-.88.72-1.6,1.6-1.6Z"/>
  <path class="cls-5" d="m478.81,108.81c-.96,0-1.6-.64-1.6-1.6v-10.08c0-.64.16-1.12.64-1.76l53.13-81.93v-.16h-50.25c-.96,0-1.6-.64-1.6-1.6V1.6c0-.96.64-1.6,1.6-1.6h64.97c.96,0,1.6.64,1.6,1.6v10.08c0,.64-.16,1.12-.64,1.76l-53.29,81.93v.16h52.33c.96,0,1.6.64,1.6,1.6v10.08c0,.96-.64,1.6-1.6,1.6h-66.89Z"/>
  <path class="cls-5" d="m553.54,1.6c0-.96.64-1.6,1.6-1.6h62.25c.96,0,1.6.64,1.6,1.6v5.44c0,.96-.64,1.6-1.6,1.6h-53.77c-.64,0-.96.32-.96.96v38.72c0,.64.32.96.96.96h46.25c.96,0,1.6.64,1.6,1.6v5.44c0,.96-.64,1.6-1.6,1.6h-46.25c-.64,0-.96.32-.96.96v40.32c0,.64.32.96.96.96h53.77c.96,0,1.6.64,1.6,1.6v5.44c0,.96-.64,1.6-1.6,1.6h-62.25c-.96,0-1.6-.64-1.6-1.6V1.6Z"/>
  <g>
    <text class="cls-4" transform="translate(75.78 178.16) scale(1.04 1)"><tspan class="cls-10" x="0" y="0">P</tspan><tspan class="cls-8" x="28.78" y="0">R</tspan><tspan class="cls-6" x="57.95" y="0">ODU</tspan><tspan class="cls-7" x="161.38" y="0">T</tspan><tspan class="cls-6" x="187.56" y="0">O</tspan><tspan class="cls-9" x="222.95" y="0">R</tspan><tspan class="cls-6" x="252.19" y="0">A DIGI</tspan><tspan class="cls-2" x="400.57" y="0">T</tspan><tspan class="cls-1" x="424.73" y="0">AL</tspan></text>
    <text class="cls-3" transform="translate(75.78 178.16) scale(1.04 1)"><tspan class="cls-10" x="0" y="0">P</tspan><tspan class="cls-8" x="28.78" y="0">R</tspan><tspan class="cls-6" x="57.95" y="0">ODU</tspan><tspan class="cls-7" x="161.38" y="0">T</tspan><tspan class="cls-6" x="187.56" y="0">O</tspan><tspan class="cls-9" x="222.95" y="0">R</tspan><tspan class="cls-6" x="252.19" y="0">A DIGI</tspan><tspan class="cls-2" x="400.57" y="0">T</tspan><tspan class="cls-1" x="424.73" y="0">AL</tspan></text>
  </g>
</svg>