<?xml version="1.0" encoding="utf-8"?>
<!-- Generator: Adobe Illustrator 27.4.1, SVG Export Plug-In . SVG Version: 6.00 Build 0)  -->
<svg version="1.1" id="Layer_1" xmlns="http://www.w3.org/2000/svg" xmlns:xlink="http://www.w3.org/1999/xlink" x="0px" y="0px"
	 viewBox="0 0 1920 1080" style="enable-background:new 0 0 1920 1080;" xml:space="preserve">
<style type="text/css">
	.st0{clip-path:url(#SVGID_00000062176852521039843840000016764556597921802919_);}
	.st1{fill:#D9291C;}
	.st2{fill:#FFFFFF;}
	.st3{font-family:'DINNextLTPro-Medium';}
	.st4{font-size:29px;}
	.st5{letter-spacing:4;}
	.st6{letter-spacing:2;}
</style>
<g>
	<defs>
		<rect id="SVGID_1_" x="740.1" y="473.2" width="440" height="133.5"/>
	</defs>
	<clipPath id="SVGID_00000070077405526821255030000007904234554086625456_">
		<use xlink:href="#SVGID_1_"  style="overflow:visible;"/>
	</clipPath>
	<g id="Group_162502" style="clip-path:url(#SVGID_00000070077405526821255030000007904234554086625456_);">
		<path id="Path_1117" class="st1" d="M766.6,550.6c-0.7,0-1.2-0.5-1.4-1.1l-25-74.8c-0.3-0.9,0.1-1.4,0.8-1.4h7.7
			c0.7-0.1,1.5,0.4,1.6,1.1l19.8,59.7h0.2l19.1-59.7c0.1-0.7,0.8-1.2,1.5-1.1h7.9c0.7,0,1.1,0.5,0.8,1.4l-24.9,74.8
			c-0.1,0.6-0.7,1.1-1.4,1.1L766.6,550.6z"/>
		<path id="Rectangle_731" class="st1" d="M804.3,473.2h16.8c0.9,0,1.6,0.7,1.6,1.6c0,0,0,0,0,0V549c0,0.9-0.7,1.6-1.6,1.6h-16.8
			c-0.9,0-1.6-0.7-1.6-1.6v-74.1C802.7,473.9,803.4,473.2,804.3,473.2z"/>
		<path id="Path_1118" class="st1" d="M827,474.4c0-0.6,0.4-1.1,1-1.1c0,0,0.1,0,0.1,0h29.9c13.6,0,23.7,5.7,27.5,17.6
			c1.6,5,2.3,9.3,2.3,21c0,11.6-0.7,16-2.3,21c-3.9,11.9-13.9,17.6-27.5,17.6h-29.9c-0.6,0-1.1-0.4-1.1-1c0,0,0-0.1,0-0.1L827,474.4
			z M847.7,532.8h6c7.1,0,10.9-1.9,12.7-7.4c0.7-2.3,1.1-4.9,1.1-13.5c0-8.6-0.5-11.3-1.1-13.5c-1.8-5.5-5.7-7.4-12.7-7.4h-6
			c-0.3,0-0.6,0.2-0.7,0.5c0,0.1,0,0.1,0,0.2v40.5c0,0.3,0.2,0.6,0.5,0.7C847.6,532.8,847.6,532.8,847.7,532.8"/>
		<path id="Path_1119" class="st1" d="M887,474.4c0-0.6,0.4-1.1,1-1.1c0,0,0.1,0,0.1,0h50.6c0.6,0,1.1,0.4,1.1,1c0,0,0,0.1,0,0.1
			V489c0,0.6-0.4,1.1-1,1.1c0,0-0.1,0-0.1,0h-31.1c-0.3,0-0.6,0.2-0.7,0.5c0,0.1,0,0.1,0,0.2v11.7c0,0.3,0.2,0.6,0.5,0.7
			c0.1,0,0.1,0,0.2,0h25.5c0.6,0,1.1,0.4,1.1,1c0,0,0,0.1,0,0.1v14.3c0,0.6-0.4,1.1-1,1.1c0,0-0.1,0-0.1,0h-25.5
			c-0.3,0-0.6,0.2-0.7,0.5c0,0.1,0,0.1,0,0.2v12.4c0,0.3,0.2,0.6,0.5,0.7c0.1,0,0.1,0,0.2,0h31.1c0.6,0,1.1,0.4,1.1,1
			c0,0,0,0.1,0,0.1v14.7c0,0.6-0.4,1.1-1,1.1c0,0-0.1,0-0.1,0h-50.6c-0.6,0-1.1-0.4-1.1-1c0,0,0-0.1,0-0.1V474.4z"/>
		<path id="Path_1120" class="st1" d="M960.1,474.4c0.2-0.7,0.8-1.2,1.5-1.1h18.5c0.7,0,1.3,0.5,1.5,1.1l26.2,75.1
			c0.2,0.4,0.1,0.9-0.3,1.1c-0.1,0.1-0.3,0.1-0.5,0.1h-18.8c-0.7,0-1.3-0.5-1.5-1.1l-3.6-11.9h-25.1l-3.6,11.9
			c-0.2,0.7-0.8,1.2-1.5,1.1h-18.7c-0.4,0.1-0.8-0.2-0.9-0.7c0-0.2,0-0.3,0.1-0.5L960.1,474.4z M978.1,520.9l-7.2-24.1h-0.3
			l-7.5,24.1H978.1z"/>
		<path id="Path_1121" class="st1" d="M1005.4,474.4c0-0.6,0.4-1.1,1-1.1c0,0,0.1,0,0.1,0h14.4c0.6,0,1.1,0.4,1.1,1c0,0,0,0.1,0,0.1
			V535c0,0.3,0.2,0.6,0.5,0.7c0.1,0,0.1,0,0.2,0h34.1c0.6,0,1.1,0.4,1.1,1c0,0,0,0.1,0,0.1v12.6c0,0.6-0.4,1.1-1,1.1
			c0,0-0.1,0-0.1,0h-50.4c-0.6,0-1.1-0.4-1.1-1c0,0,0-0.1,0-0.1L1005.4,474.4z"/>
		<path id="Rectangle_732" class="st1" d="M1062.5,473.2h10.2c0.9,0,1.6,0.7,1.6,1.6c0,0,0,0,0,0V549c0,0.9-0.7,1.6-1.6,1.6h-10.2
			c-0.9,0-1.6-0.7-1.6-1.6v-74.1C1060.9,473.9,1061.6,473.2,1062.5,473.2z"/>
		<path id="Path_1122" class="st1" d="M1080.4,550.6c-0.6,0-1.1-0.4-1.1-1c0,0,0-0.1,0-0.1v-7.2c0-0.5,0.2-0.9,0.5-1.3l37.8-58.2
			v-0.1h-35.7c-0.6,0-1.1-0.4-1.1-1c0,0,0-0.1,0-0.1v-7.2c0-0.6,0.4-1.1,1-1.1c0,0,0.1,0,0.1,0h46.2c0.6,0,1.1,0.4,1.1,1
			c0,0,0,0.1,0,0.1v7.2c0,0.5-0.2,0.9-0.5,1.3l-37.9,58.2v0.1h37.2c0.6,0,1.1,0.4,1.1,1c0,0,0,0.1,0,0.1v7.2c0,0.6-0.4,1.1-1,1.1
			c0,0-0.1,0-0.1,0L1080.4,550.6z"/>
		<path id="Path_1123" class="st1" d="M1133.6,474.4c0-0.6,0.4-1.1,1-1.1c0,0,0.1,0,0.1,0h44.2c0.6,0,1.1,0.4,1.1,1c0,0,0,0.1,0,0.1
			v3.9c0,0.6-0.4,1.1-1,1.1c0,0-0.1,0-0.1,0h-38.2c-0.3-0.1-0.6,0.2-0.7,0.5c0,0.1,0,0.1,0,0.2v27.5c0,0.3,0.2,0.6,0.5,0.7
			c0.1,0,0.1,0,0.2,0h32.9c0.6,0,1.1,0.4,1.1,1c0,0,0,0.1,0,0.1v3.9c0,0.6-0.4,1.1-1,1.1c0,0-0.1,0-0.1,0h-32.9
			c-0.3-0.1-0.6,0.2-0.7,0.5c0,0.1,0,0.1,0,0.2v28.7c0,0.3,0.2,0.6,0.5,0.7c0.1,0,0.1,0,0.2,0h38.2c0.6,0,1.1,0.4,1.1,1
			c0,0,0,0.1,0,0.1v3.9c0,0.6-0.4,1.1-1,1.1c0,0-0.1,0-0.1,0h-44.2c-0.6,0-1.1-0.4-1.1-1c0,0,0-0.1,0-0.1V474.4z"/>
		<text transform="matrix(1 0 0 1 789.2296 599.2713)" class="st2 st3 st4 st5">PR</text>
		<text transform="matrix(1 0 0 1 833.3381 599.2713)" class="st2 st3 st4 st5">O</text>
		<text transform="matrix(1 0 0 1 855.9 599.2713)" class="st2 st3 st4 st5">DUT</text>
		<text transform="matrix(1 0 0 1 921.8454 599.2713)" class="st2 st3 st4 st5">O</text>
		<text transform="matrix(1 0 0 1 944.4073 599.2713)" class="st2 st3 st4 st5">RA </text>
		<text transform="matrix(1 0 0 1 1000.3185 599.2713)" class="st2 st3 st4 st5">D</text>
		<text transform="matrix(1 0 0 1 1022.8224 599.2713)" class="st2 st3 st4 st5">IGI</text>
		<text transform="matrix(1 0 0 1 1069.7728 599.2713)" class="st2 st3 st4 st6">T</text>
		<text transform="matrix(1 0 0 1 1088.3905 599.2713)" class="st2 st3 st4 st5">A</text>
		<text transform="matrix(1 0 0 1 1110.6912 599.2713)" class="st2 st3 st4">L</text>
		<text transform="matrix(1 0 0 1 789.2296 599.2713)" class="st1 st3 st4 st5">PR</text>
		<text transform="matrix(1 0 0 1 833.3381 599.2713)" class="st1 st3 st4 st5">O</text>
		<text transform="matrix(1 0 0 1 855.9 599.2713)" class="st1 st3 st4 st5">DUT</text>
		<text transform="matrix(1 0 0 1 921.8454 599.2713)" class="st1 st3 st4 st5">O</text>
		<text transform="matrix(1 0 0 1 944.4073 599.2713)" class="st1 st3 st4 st5">RA </text>
		<text transform="matrix(1 0 0 1 1000.3185 599.2713)" class="st1 st3 st4 st5">D</text>
		<text transform="matrix(1 0 0 1 1022.8224 599.2713)" class="st1 st3 st4 st5">IGI</text>
		<text transform="matrix(1 0 0 1 1069.7728 599.2713)" class="st1 st3 st4 st6">T</text>
		<text transform="matrix(1 0 0 1 1088.3905 599.2713)" class="st1 st3 st4 st5">A</text>
		<text transform="matrix(1 0 0 1 1110.6912 599.2713)" class="st1 st3 st4">L</text>
	</g>
</g>
</svg>
