<?xml version="1.0" encoding="utf-8"?>
<!-- Generator: Adobe Illustrator 27.0.0, SVG Export Plug-In . SVG Version: 6.00 Build 0)  -->
<svg version="1.1" id="Layer_1" xmlns="http://www.w3.org/2000/svg" xmlns:xlink="http://www.w3.org/1999/xlink" x="0px" y="0px"
	 viewBox="0 0 1920 1080" style="enable-background:new 0 0 1920 1080;" xml:space="preserve">
<style type="text/css">
	.st0{fill:#D9291C;}
</style>
<path class="st0" d="M800.2,572c-0.6,0-0.9-0.4-1.1-0.9l-20.7-61.8c-0.3-0.8,0.1-1.1,0.7-1.1h6.4c0.8,0,1.1,0.3,1.3,0.9l16.4,49.3
	h0.2l15.8-49.3c0.2-0.7,0.6-0.9,1.2-0.9h6.5c0.6,0,0.9,0.4,0.7,1.1L806.9,571c-0.2,0.6-0.6,0.9-1.1,0.9H800.2z"/>
<path class="st0" d="M830,509c0-0.6,0.4-0.9,0.9-0.9h14.7c0.6,0,0.9,0.4,0.9,0.9v62c0,0.6-0.4,0.9-0.9,0.9h-14.7
	c-0.6,0-0.9-0.4-0.9-0.9V509z"/>
<path class="st0" d="M850.1,509c0-0.6,0.4-0.9,0.9-0.9h24.7c11.3,0,19.5,4.7,22.7,14.6c1.3,4.1,1.9,7.7,1.9,17.4
	c0,9.6-0.6,13.3-1.9,17.4c-3.2,9.9-11.5,14.6-22.7,14.6h-24.7c-0.6,0-0.9-0.4-0.9-0.9V509z M867.2,557.3h5c5.8,0,9-1.6,10.5-6.1
	c0.6-1.9,0.9-4,0.9-11.2c0-7.1-0.4-9.3-0.9-11.2c-1.5-4.5-4.7-6.1-10.5-6.1h-5c-0.4,0-0.6,0.2-0.6,0.6v33.5
	C866.7,557.1,866.8,557.3,867.2,557.3"/>
<path class="st0" d="M899.7,509c0-0.6,0.4-0.9,0.9-0.9h41.8c0.6,0,0.9,0.4,0.9,0.9v12.1c0,0.6-0.4,0.9-0.9,0.9h-25.7
	c-0.4,0-0.6,0.2-0.6,0.6v9.7c0,0.4,0.2,0.6,0.6,0.6h21.1c0.6,0,0.9,0.4,0.9,0.9v11.8c0,0.6-0.4,0.9-0.9,0.9h-21.1
	c-0.4,0-0.6,0.2-0.6,0.6v10.2c0,0.4,0.2,0.6,0.6,0.6h25.7c0.6,0,0.9,0.4,0.9,0.9V571c0,0.6-0.4,0.9-0.9,0.9h-41.8
	c-0.6,0-0.9-0.4-0.9-0.9V509z"/>
<path class="st0" d="M960.1,509c0.2-0.6,0.6-0.9,1.2-0.9h15.3c0.7,0,1,0.4,1.2,0.9l21.6,62c0.2,0.6-0.1,0.9-0.7,0.9h-15.5
	c-0.7,0-1-0.4-1.2-0.9l-3-9.9h-20.8l-3,9.9c-0.2,0.6-0.6,0.9-1.2,0.9h-15.4c-0.6,0-0.8-0.4-0.7-0.9L960.1,509z M974.9,547.4
	l-5.9-19.9h-0.3l-6.2,19.9H974.9z"/>
<path class="st0" d="M997.5,509c0-0.6,0.4-0.9,0.9-0.9h11.9c0.6,0,0.9,0.4,0.9,0.9v50.1c0,0.4,0.2,0.6,0.6,0.6h28.2
	c0.6,0,0.9,0.4,0.9,0.9V571c0,0.6-0.4,0.9-0.9,0.9h-41.6c-0.6,0-0.9-0.4-0.9-0.9V509z"/>
<path class="st0" d="M1043.4,509c0-0.6,0.4-0.9,0.9-0.9h9.2c0.6,0,0.9,0.4,0.9,0.9v62c0,0.6-0.4,0.9-0.9,0.9h-9.2
	c-0.6,0-0.9-0.4-0.9-0.9V509z"/>
<path class="st0" d="M1059.5,572c-0.6,0-0.9-0.4-0.9-0.9v-5.9c0-0.4,0.1-0.7,0.4-1l31.2-48.1v-0.1h-29.5c-0.6,0-0.9-0.4-0.9-0.9V509
	c0-0.6,0.4-0.9,0.9-0.9h38.2c0.6,0,0.9,0.4,0.9,0.9v5.9c0,0.4-0.1,0.7-0.4,1l-31.3,48.1v0.1h30.7c0.6,0,0.9,0.4,0.9,0.9v5.9
	c0,0.6-0.4,0.9-0.9,0.9H1059.5z"/>
<path class="st0" d="M1103.4,509c0-0.6,0.4-0.9,0.9-0.9h36.6c0.6,0,0.9,0.4,0.9,0.9v3.2c0,0.6-0.4,0.9-0.9,0.9h-31.6
	c-0.4,0-0.6,0.2-0.6,0.6v22.7c0,0.4,0.2,0.6,0.6,0.6h27.2c0.6,0,0.9,0.4,0.9,0.9v3.2c0,0.6-0.4,0.9-0.9,0.9h-27.2
	c-0.4,0-0.6,0.2-0.6,0.6v23.7c0,0.4,0.2,0.6,0.6,0.6h31.6c0.6,0,0.9,0.4,0.9,0.9v3.2c0,0.6-0.4,0.9-0.9,0.9h-36.6
	c-0.6,0-0.9-0.4-0.9-0.9V509z"/>
</svg>
