<svg version="1.1" id="Layer_1" xmlns="http://www.w3.org/2000/svg" xmlns:xlink="http://www.w3.org/1999/xlink" x="0px" y="0px"
	 width="100%" viewBox="0 0 652 134" enable-background="new 0 0 652 134" xml:space="preserve">
<path fill="#FEFCFC" opacity="1.000000" stroke="none" 
	d="
M440.000000,135.000000 
	C293.333374,135.000000 147.166718,135.000000 1.000059,135.000000 
	C1.000039,90.333366 1.000039,45.666737 1.000020,1.000077 
	C218.333252,1.000051 435.666504,1.000051 652.999817,1.000026 
	C652.999878,45.666584 652.999878,90.333168 652.999939,134.999878 
	C582.166687,135.000000 511.333344,135.000000 440.000000,135.000000 
M220.640671,96.166512 
	C220.640671,96.166512 221.100266,96.270760 221.100266,96.270760 
	C221.100266,96.270760 221.571518,96.265694 221.603012,97.166801 
	C221.608276,103.998848 221.699005,110.832375 221.580231,117.662262 
	C221.526489,120.753349 222.453476,122.193535 225.844284,122.183144 
	C254.669983,122.094818 283.496185,122.098907 312.321869,122.189400 
	C314.994507,122.197784 316.175354,121.205589 316.857025,118.761406 
	C318.228912,113.842453 319.818665,108.984276 321.259827,104.292160 
	C333.333008,104.292160 344.941772,104.292160 356.504425,104.292160 
	C358.018158,109.177139 359.673004,113.725082 360.790161,118.401474 
	C361.533356,121.512390 363.142853,122.195221 366.072449,122.186813 
	C396.233521,122.100258 426.395142,122.082672 456.556030,122.197891 
	C460.354095,122.212402 462.143799,121.200966 461.856537,117.132874 
	C461.598938,113.484856 461.629211,109.793877 461.849121,106.140915 
	C462.085327,102.216728 460.523254,100.884445 456.608215,100.937500 
	C443.445618,101.115883 430.273743,100.791023 417.116882,101.118141 
	C412.334534,101.237053 410.975555,99.909454 411.021423,95.077698 
	C411.261932,69.749817 411.025574,44.417545 411.234955,19.089119 
	C411.272064,14.601430 409.893036,13.178994 405.551453,13.545775 
	C401.580292,13.881262 397.526947,13.932085 393.567078,13.535904 
	C388.784241,13.057384 387.739899,14.963269 387.768616,19.472439 
	C387.957642,49.133682 387.866150,78.796715 387.866150,109.929672 
	C386.618652,106.747276 385.805481,104.858376 385.129883,102.921486 
	C375.276489,74.672768 365.385925,46.436703 355.675262,18.138926 
	C354.513916,14.754633 352.952576,13.369293 349.288971,13.534797 
	C342.803040,13.827802 336.286194,13.811764 329.798248,13.541766 
	C326.076019,13.386864 324.241852,14.515667 322.951904,18.224491 
	C314.106720,43.655411 305.025421,69.004662 295.876312,94.328239 
	C295.328400,95.844826 293.563446,97.998772 292.327393,98.024025 
	C279.167877,98.292839 266.000214,98.243385 252.837036,98.087410 
	C251.825943,98.075424 250.006058,96.633705 249.964828,95.788132 
	C249.701218,90.383064 249.830490,84.958839 249.830490,79.133858 
	C259.774414,79.133858 268.909821,79.160698 278.045013,79.127052 
	C289.392090,79.085258 288.092773,80.379906 288.125092,68.940163 
	C288.162750,55.616966 288.133850,55.616886 274.626984,55.616882 
	C266.504669,55.616882 258.382355,55.616882 250.100937,55.616882 
	C250.100937,49.303196 250.100937,43.709003 250.100937,37.700096 
	C252.165848,37.584209 253.957062,37.400650 255.748672,37.396606 
	C267.413818,37.370251 279.080414,37.283134 290.743469,37.440548 
	C294.479431,37.490967 296.321899,36.521931 296.061859,32.386829 
	C295.769592,27.739124 295.794891,23.047670 296.056305,18.396284 
	C296.273834,14.525747 294.564484,13.552547 291.027832,13.568641 
	C269.530945,13.666458 248.032730,13.706833 226.536743,13.539484 
	C222.389709,13.507199 221.453247,15.174898 221.555725,18.896511 
	C221.761948,26.385612 221.617096,33.884380 221.617096,42.178307 
	C220.844315,40.796539 220.401215,40.255661 220.216644,39.637577 
	C215.164307,22.719131 203.094238,14.693691 186.166519,13.945128 
	C171.364227,13.290553 156.514450,13.763455 141.688019,13.562118 
	C138.182755,13.514518 137.556808,15.113231 137.574448,18.131418 
	C137.666992,33.962223 137.616974,49.793865 137.616928,65.625214 
	C137.616882,82.956375 137.632278,100.287575 137.601028,117.618675 
	C137.596481,120.141457 137.620132,122.209076 141.150375,122.174347 
	C156.479568,122.023521 171.831879,122.526779 187.134796,121.856453 
	C203.950272,121.119873 215.427628,111.672211 220.640671,96.166512 
M540.499878,13.613938 
	C526.338562,13.614193 512.175781,13.519564 498.018097,13.745187 
	C496.405487,13.770885 493.703491,15.334644 493.405334,16.624231 
	C491.441254,25.119028 493.087555,26.996536 501.589539,26.996706 
	C502.255951,26.996719 502.922363,26.996710 503.588776,26.996710 
	C517.017151,26.996710 530.445496,26.996710 544.618347,26.996710 
	C543.372803,29.191307 542.583740,30.763205 541.632751,32.230110 
	C526.425171,55.688011 511.328339,79.219772 495.869049,102.510864 
	C492.534424,107.534828 491.186798,112.535706 491.541412,118.382904 
	C491.709320,121.151688 492.608887,122.182320 495.403290,122.172630 
	C516.061890,122.101051 536.720947,122.096062 557.379517,122.175674 
	C560.482910,122.187637 561.578003,120.863045 561.399780,117.963860 
	C561.307922,116.470108 561.273987,114.956100 561.407227,113.468559 
	C561.714417,110.038139 560.330872,108.740707 556.810364,108.803429 
	C546.983887,108.978523 537.152222,108.863968 527.322632,108.863838 
	C521.100647,108.863754 514.878601,108.863815 508.025970,108.863815 
	C509.191559,106.850342 509.869751,105.547813 510.666290,104.322227 
	C526.263062,80.325211 541.737000,56.246296 557.595459,32.423340 
	C560.791504,27.622192 561.673340,22.850771 561.436157,17.415625 
	C561.314941,14.639300 560.217773,13.547607 557.493103,13.592065 
	C552.163269,13.679028 546.830933,13.615128 540.499878,13.613938 
M103.193954,104.496918 
	C103.194504,108.992821 103.276848,113.490730 103.166588,117.983917 
	C103.094177,120.934509 104.257294,122.217209 107.282143,122.168869 
	C114.107506,122.059792 120.937653,122.040459 127.762009,122.176811 
	C130.730209,122.236122 131.418030,120.848312 131.414520,118.215912 
	C131.369949,84.746552 131.350739,51.277016 131.438797,17.807829 
	C131.447617,14.454545 130.150360,13.478374 126.999039,13.565935 
	C121.009148,13.732367 114.995972,13.877125 109.021706,13.529034 
	C104.312523,13.254651 103.073471,15.026757 103.102974,19.575165 
	C103.284462,47.548431 103.193993,75.523460 103.193954,104.496918 
M92.736900,35.241512 
	C94.953476,28.316803 97.170052,21.392094 99.662109,13.606756 
	C96.261551,13.606756 93.622932,13.861552 91.053001,13.549915 
	C86.670197,13.018443 84.674538,14.656819 83.363541,19.014198 
	C78.097946,36.515533 72.395576,53.885769 66.821571,71.293869 
	C64.007042,80.083878 61.121811,88.851242 57.891373,98.789162 
	C56.938820,96.050980 56.399227,94.561584 55.900997,93.058479 
	C47.588833,67.981705 39.316261,42.891636 30.893127,17.852209 
	C30.354870,16.252131 28.807949,14.040057 27.472878,13.841269 
	C23.764847,13.289154 19.920921,13.649732 15.428478,13.649732 
	C16.010199,15.846586 16.335087,17.415401 16.838575,18.924637 
	C27.788710,51.748215 38.857155,84.532974 49.609898,117.420982 
	C51.080505,121.918961 53.715931,122.226631 57.488968,122.215744 
	C61.240871,122.204910 63.919071,121.966576 65.384346,117.442406 
	C74.200729,90.220993 83.370918,63.114174 92.736900,35.241512 
M589.516785,62.868450 
	C585.434082,62.868450 581.351379,62.868450 577.325806,62.868450 
	C577.325806,48.870201 577.325806,35.793510 577.325806,22.131542 
	C579.439087,22.131542 581.225342,22.131544 583.011597,22.131542 
	C597.835327,22.131525 612.659058,22.124058 627.482788,22.137955 
	C630.348999,22.140642 633.139465,22.658632 633.107056,18.075970 
	C633.077637,13.904450 630.927734,13.577792 627.718994,13.589002 
	C609.397766,13.653003 591.075500,13.707681 572.755371,13.549548 
	C568.871094,13.516022 567.531616,14.691486 567.547302,18.675806 
	C567.676208,51.487347 567.673950,84.299820 567.550476,117.111404 
	C567.535461,121.105263 568.921997,122.238380 572.792236,122.204018 
	C591.112244,122.041275 609.434631,122.091805 627.755737,122.168480 
	C630.991882,122.182030 633.124451,121.860962 633.106628,117.688080 
	C633.089294,113.627708 630.868530,113.588722 627.962646,113.597946 
	C612.972473,113.645515 597.982117,113.634865 582.991943,113.601120 
	C581.078796,113.596809 579.166199,113.338852 577.343811,113.205048 
	C577.343811,99.081879 577.343811,85.518654 577.343811,71.380249 
	C579.487427,71.380249 581.283386,71.380310 583.079346,71.380241 
	C595.737793,71.379761 608.396851,71.313660 621.054382,71.423981 
	C624.296021,71.452232 625.411865,70.239471 625.462646,67.020386 
	C625.516174,63.627407 624.125854,62.773777 620.991760,62.816814 
	C610.833618,62.956306 600.672363,62.868607 589.516785,62.868450 
M484.809540,115.293785 
	C484.809540,85.842804 484.809540,56.391823 484.809540,26.940840 
	C484.809540,13.530228 484.806122,13.730136 471.389008,13.501442 
	C466.665039,13.420923 465.489380,14.983709 465.516724,19.517372 
	C465.696442,49.300064 465.609314,79.084366 465.609283,108.868141 
	C465.609283,122.214828 465.612457,122.023018 478.977081,122.243942 
	C483.658936,122.321342 485.494019,120.803978 484.809540,115.293785 
z"/>
<path fill="#C83C2C" opacity="1.000000" stroke="none" 
	d="
M220.171524,96.129448 
	C215.427628,111.672211 203.950272,121.119873 187.134796,121.856453 
	C171.831879,122.526779 156.479568,122.023521 141.150375,122.174347 
	C137.620132,122.209076 137.596481,120.141457 137.601028,117.618675 
	C137.632278,100.287575 137.616882,82.956375 137.616928,65.625214 
	C137.616974,49.793865 137.666992,33.962223 137.574448,18.131418 
	C137.556808,15.113231 138.182755,13.514518 141.688019,13.562118 
	C156.514450,13.763455 171.364227,13.290553 186.166519,13.945128 
	C203.094238,14.693691 215.164307,22.719131 220.216644,39.637577 
	C220.401215,40.255661 220.844315,40.796539 221.617096,42.178307 
	C221.617096,33.884380 221.761948,26.385612 221.555725,18.896511 
	C221.453247,15.174898 222.389709,13.507199 226.536743,13.539484 
	C248.032730,13.706833 269.530945,13.666458 291.027832,13.568641 
	C294.564484,13.552547 296.273834,14.525747 296.056305,18.396284 
	C295.794891,23.047670 295.769592,27.739124 296.061859,32.386829 
	C296.321899,36.521931 294.479431,37.490967 290.743469,37.440548 
	C279.080414,37.283134 267.413818,37.370251 255.748672,37.396606 
	C253.957062,37.400650 252.165848,37.584209 250.100937,37.700096 
	C250.100937,43.709003 250.100937,49.303196 250.100937,55.616882 
	C258.382355,55.616882 266.504669,55.616882 274.626984,55.616882 
	C288.133850,55.616886 288.162750,55.616966 288.125092,68.940163 
	C288.092773,80.379906 289.392090,79.085258 278.045013,79.127052 
	C268.909821,79.160698 259.774414,79.133858 249.830490,79.133858 
	C249.830490,84.958839 249.701218,90.383064 249.964828,95.788132 
	C250.006058,96.633705 251.825943,98.075424 252.837036,98.087410 
	C266.000214,98.243385 279.167877,98.292839 292.327393,98.024025 
	C293.563446,97.998772 295.328400,95.844826 295.876312,94.328239 
	C305.025421,69.004662 314.106720,43.655411 322.951904,18.224491 
	C324.241852,14.515667 326.076019,13.386864 329.798248,13.541766 
	C336.286194,13.811764 342.803040,13.827802 349.288971,13.534797 
	C352.952576,13.369293 354.513916,14.754633 355.675262,18.138926 
	C365.385925,46.436703 375.276489,74.672768 385.129883,102.921486 
	C385.805481,104.858376 386.618652,106.747276 387.866150,109.929672 
	C387.866150,78.796715 387.957642,49.133682 387.768616,19.472439 
	C387.739899,14.963269 388.784241,13.057384 393.567078,13.535904 
	C397.526947,13.932085 401.580292,13.881262 405.551453,13.545775 
	C409.893036,13.178994 411.272064,14.601430 411.234955,19.089119 
	C411.025574,44.417545 411.261932,69.749817 411.021423,95.077698 
	C410.975555,99.909454 412.334534,101.237053 417.116882,101.118141 
	C430.273743,100.791023 443.445618,101.115883 456.608215,100.937500 
	C460.523254,100.884445 462.085327,102.216728 461.849121,106.140915 
	C461.629211,109.793877 461.598938,113.484856 461.856537,117.132874 
	C462.143799,121.200966 460.354095,122.212402 456.556030,122.197891 
	C426.395142,122.082672 396.233521,122.100258 366.072449,122.186813 
	C363.142853,122.195221 361.533356,121.512390 360.790161,118.401474 
	C359.673004,113.725082 358.018158,109.177139 356.504425,104.292160 
	C344.941772,104.292160 333.333008,104.292160 321.259827,104.292160 
	C319.818665,108.984276 318.228912,113.842453 316.857025,118.761406 
	C316.175354,121.205589 314.994507,122.197784 312.321869,122.189400 
	C283.496185,122.098907 254.669983,122.094818 225.844284,122.183144 
	C222.453476,122.193535 221.526489,120.753349 221.580231,117.662262 
	C221.699005,110.832375 221.608276,103.998848 221.737427,96.340698 
	C221.871841,94.090210 221.871841,92.665833 221.871841,91.241455 
	C221.719666,91.207977 221.567505,91.174492 221.415329,91.141006 
	C221.000732,92.803818 220.586121,94.466637 220.171524,96.129448 
M184.042175,95.936096 
	C190.711349,93.743225 193.388245,88.341599 193.723328,82.110695 
	C194.231247,72.665398 194.273529,63.148560 193.730057,53.707218 
	C193.254517,45.445839 189.031143,40.318798 182.194183,39.383633 
	C177.017853,38.675610 171.667023,39.243343 166.141891,39.243343 
	C166.141891,58.424541 166.141891,77.471619 166.141891,97.354576 
	C172.091400,96.922508 177.665451,96.517700 184.042175,95.936096 
M344.739990,64.718254 
	C343.020660,59.055660 341.301331,53.393063 339.180115,46.406826 
	C335.480865,58.263748 332.150085,68.939606 328.762299,79.798172 
	C335.791565,79.798172 342.293213,79.798172 349.119110,79.798172 
	C347.637054,74.723343 346.289795,70.110016 344.739990,64.718254 
z"/>
<path fill="#C83D2D" opacity="1.000000" stroke="none" 
	d="
M540.999756,13.613808 
	C546.830933,13.615128 552.163269,13.679028 557.493103,13.592065 
	C560.217773,13.547607 561.314941,14.639300 561.436157,17.415625 
	C561.673340,22.850771 560.791504,27.622192 557.595459,32.423340 
	C541.737000,56.246296 526.263062,80.325211 510.666290,104.322227 
	C509.869751,105.547813 509.191559,106.850342 508.025970,108.863815 
	C514.878601,108.863815 521.100647,108.863754 527.322632,108.863838 
	C537.152222,108.863968 546.983887,108.978523 556.810364,108.803429 
	C560.330872,108.740707 561.714417,110.038139 561.407227,113.468559 
	C561.273987,114.956100 561.307922,116.470108 561.399780,117.963860 
	C561.578003,120.863045 560.482910,122.187637 557.379517,122.175674 
	C536.720947,122.096062 516.061890,122.101051 495.403290,122.172630 
	C492.608887,122.182320 491.709320,121.151688 491.541412,118.382904 
	C491.186798,112.535706 492.534424,107.534828 495.869049,102.510864 
	C511.328339,79.219772 526.425171,55.688011 541.632751,32.230110 
	C542.583740,30.763205 543.372803,29.191307 544.618347,26.996710 
	C530.445496,26.996710 517.017151,26.996710 503.588776,26.996710 
	C502.922363,26.996710 502.255951,26.996719 501.589539,26.996706 
	C493.087555,26.996536 491.441254,25.119028 493.405334,16.624231 
	C493.703491,15.334644 496.405487,13.770885 498.018097,13.745187 
	C512.175781,13.519564 526.338562,13.614193 540.999756,13.613808 
z"/>
<path fill="#C93D2D" opacity="1.000000" stroke="none" 
	d="
M103.193985,103.997406 
	C103.193993,75.523460 103.284462,47.548431 103.102974,19.575165 
	C103.073471,15.026757 104.312523,13.254651 109.021706,13.529034 
	C114.995972,13.877125 121.009148,13.732367 126.999039,13.565935 
	C130.150360,13.478374 131.447617,14.454545 131.438797,17.807829 
	C131.350739,51.277016 131.369949,84.746552 131.414520,118.215912 
	C131.418030,120.848312 130.730209,122.236122 127.762009,122.176811 
	C120.937653,122.040459 114.107506,122.059792 107.282143,122.168869 
	C104.257294,122.217209 103.094177,120.934509 103.166588,117.983917 
	C103.276848,113.490730 103.194504,108.992821 103.193985,103.997406 
z"/>
<path fill="#C93F2F" opacity="1.000000" stroke="none" 
	d="
M92.579773,35.605247 
	C83.370918,63.114174 74.200729,90.220993 65.384346,117.442406 
	C63.919071,121.966576 61.240871,122.204910 57.488968,122.215744 
	C53.715931,122.226631 51.080505,121.918961 49.609898,117.420982 
	C38.857155,84.532974 27.788710,51.748215 16.838575,18.924637 
	C16.335087,17.415401 16.010199,15.846586 15.428478,13.649732 
	C19.920921,13.649732 23.764847,13.289154 27.472878,13.841269 
	C28.807949,14.040057 30.354870,16.252131 30.893127,17.852209 
	C39.316261,42.891636 47.588833,67.981705 55.900997,93.058479 
	C56.399227,94.561584 56.938820,96.050980 57.891373,98.789162 
	C61.121811,88.851242 64.007042,80.083878 66.821571,71.293869 
	C72.395576,53.885769 78.097946,36.515533 83.363541,19.014198 
	C84.674538,14.656819 86.670197,13.018443 91.053001,13.549915 
	C93.622932,13.861552 96.261551,13.606756 99.662109,13.606756 
	C97.170052,21.392094 94.953476,28.316803 92.579773,35.605247 
z"/>
<path fill="#C83B2B" opacity="1.000000" stroke="none" 
	d="
M590.014526,62.868431 
	C600.672363,62.868607 610.833618,62.956306 620.991760,62.816814 
	C624.125854,62.773777 625.516174,63.627407 625.462646,67.020386 
	C625.411865,70.239471 624.296021,71.452232 621.054382,71.423981 
	C608.396851,71.313660 595.737793,71.379761 583.079346,71.380241 
	C581.283386,71.380310 579.487427,71.380249 577.343811,71.380249 
	C577.343811,85.518654 577.343811,99.081879 577.343811,113.205048 
	C579.166199,113.338852 581.078796,113.596809 582.991943,113.601120 
	C597.982117,113.634865 612.972473,113.645515 627.962646,113.597946 
	C630.868530,113.588722 633.089294,113.627708 633.106628,117.688080 
	C633.124451,121.860962 630.991882,122.182030 627.755737,122.168480 
	C609.434631,122.091805 591.112244,122.041275 572.792236,122.204018 
	C568.921997,122.238380 567.535461,121.105263 567.550476,117.111404 
	C567.673950,84.299820 567.676208,51.487347 567.547302,18.675806 
	C567.531616,14.691486 568.871094,13.516022 572.755371,13.549548 
	C591.075500,13.707681 609.397766,13.653003 627.718994,13.589002 
	C630.927734,13.577792 633.077637,13.904450 633.107056,18.075970 
	C633.139465,22.658632 630.348999,22.140642 627.482788,22.137955 
	C612.659058,22.124058 597.835327,22.131525 583.011597,22.131542 
	C581.225342,22.131544 579.439087,22.131542 577.325806,22.131542 
	C577.325806,35.793510 577.325806,48.870201 577.325806,62.868450 
	C581.351379,62.868450 585.434082,62.868450 590.014526,62.868431 
z"/>
<path fill="#C93E2E" opacity="1.000000" stroke="none" 
	d="
M484.809479,115.766922 
	C485.494019,120.803978 483.658936,122.321342 478.977081,122.243942 
	C465.612457,122.023018 465.609283,122.214828 465.609283,108.868141 
	C465.609314,79.084366 465.696442,49.300064 465.516724,19.517372 
	C465.489380,14.983709 466.665039,13.420923 471.389008,13.501442 
	C484.806122,13.730136 484.809540,13.530228 484.809540,26.940840 
	C484.809540,56.391823 484.809540,85.842804 484.809479,115.766922 
z"/>
<path fill="#E39F99" opacity="1.000000" stroke="none" 
	d="
M220.406097,96.147980 
	C220.586121,94.466637 221.000732,92.803818 221.415329,91.141006 
	C221.567505,91.174492 221.719666,91.207977 221.871841,91.241455 
	C221.871841,92.665833 221.871841,94.090210 221.721680,95.890137 
	C221.571518,96.265694 221.100266,96.270760 221.100266,96.270760 
	C221.100266,96.270760 220.640671,96.166512 220.406097,96.147980 
z"/>
<path fill="#FFFEFE" opacity="1.000000" stroke="none" 
	d="
M183.640839,96.024498 
	C177.665451,96.517700 172.091400,96.922508 166.141891,97.354576 
	C166.141891,77.471619 166.141891,58.424541 166.141891,39.243343 
	C171.667023,39.243343 177.017853,38.675610 182.194183,39.383633 
	C189.031143,40.318798 193.254517,45.445839 193.730057,53.707218 
	C194.273529,63.148560 194.231247,72.665398 193.723328,82.110695 
	C193.388245,88.341599 190.711349,93.743225 183.640839,96.024498 
z"/>
<path fill="#FEFAFA" opacity="1.000000" stroke="none" 
	d="
M344.841248,65.107475 
	C346.289795,70.110016 347.637054,74.723343 349.119110,79.798172 
	C342.293213,79.798172 335.791565,79.798172 328.762299,79.798172 
	C332.150085,68.939606 335.480865,58.263748 339.180115,46.406826 
	C341.301331,53.393063 343.020660,59.055660 344.841248,65.107475 
z"/>
</svg>